HIERARCHY
ROOT Hips
{
	OFFSET 0.000000 0.000000 0.000000
	CHANNELS 6 Xposition Yposition Zposition Xrotation Yrotation Zrotation
	JOINT Thigh.L
	{
		OFFSET 0.054436 0.030512 -0.091944
		CHANNELS 3 Xrotation Yrotation Zrotation
		JOINT Shin.L
		{
			OFFSET 0.053185 0.015674 -0.411411
			CHANNELS 3 Xrotation Yrotation Zrotation
			JOINT Foot.L
			{
				OFFSET -0.041491 0.033015 -0.432589
				CHANNELS 3 Xrotation Yrotation Zrotation
				JOINT Toe.L
				{
					OFFSET 0.044741 -0.119403 -0.063832
					CHANNELS 3 Xrotation Yrotation Zrotation
					End Site
					{
						OFFSET 0.000000 0.050000 0.000000
					}
				}
			}
		}
	}
	JOINT Thigh.R
	{
		OFFSET -0.059726 0.027782 -0.102329
		CHANNELS 3 Xrotation Yrotation Zrotation
		JOINT Shin.R
		{
			OFFSET -0.042566 0.021159 -0.395112
			CHANNELS 3 Xrotation Yrotation Zrotation
			JOINT Foot.R
			{
				OFFSET 0.015539 0.021493 -0.441508
				CHANNELS 3 Xrotation Yrotation Zrotation
				JOINT Toe.R
				{
					OFFSET -0.037083 -0.120181 -0.063777
					CHANNELS 3 Xrotation Yrotation Zrotation
					End Site
					{
						OFFSET 0.000000 0.050000 0.000000
					}
				}
			}
		}
	}
	JOINT Spine
	{
		OFFSET -0.002073 0.019911 0.109453
		CHANNELS 3 Xrotation Yrotation Zrotation
		JOINT Spine.2
		{
			OFFSET 0.006781 0.003123 0.134261
			CHANNELS 3 Xrotation Yrotation Zrotation
			JOINT Chest
			{
				OFFSET -0.010427 -0.023269 0.049266
				CHANNELS 3 Xrotation Yrotation Zrotation
				JOINT Neck
				{
					OFFSET -0.009473 0.029402 0.163541
					CHANNELS 3 Xrotation Yrotation Zrotation
					JOINT Head
					{
						OFFSET 0.022306 -0.022071 0.164686
						CHANNELS 3 Xrotation Yrotation Zrotation
						End Site
						{
							OFFSET 0.000000 0.050000 0.000000
						}
					}
				}
				JOINT Clavicle.L
				{
					OFFSET 0.043305 0.008528 0.083583
					CHANNELS 3 Xrotation Yrotation Zrotation
					JOINT UpperArm.L
					{
						OFFSET 0.106399 0.014868 0.061799
						CHANNELS 3 Xrotation Yrotation Zrotation
						JOINT ForeArm.L
						{
							OFFSET 0.264443 0.035281 -0.075551
							CHANNELS 3 Xrotation Yrotation Zrotation
							JOINT Hand.L
							{
								OFFSET 0.263801 0.006290 0.021320
								CHANNELS 3 Xrotation Yrotation Zrotation
								JOINT Thumb1.L
								{
									OFFSET 0.154576 0.002851 0.009664
									CHANNELS 3 Xrotation Yrotation Zrotation
									JOINT Thumb2.L
									{
										OFFSET 0.029894 0.000713 0.002416
										CHANNELS 3 Xrotation Yrotation Zrotation
										End Site
										{
											OFFSET 0.024912 0.000594 0.002013
										}
									}
								}
								JOINT Index1.L
								{
									OFFSET 0.137576 0.002851 0.009664
									CHANNELS 3 Xrotation Yrotation Zrotation
									JOINT Index2.L
									{
										OFFSET 0.029894 0.000713 0.002416
										CHANNELS 3 Xrotation Yrotation Zrotation
										JOINT Index3.L
										{
											OFFSET 0.021922 0.000523 0.001772
											CHANNELS 3 Xrotation Yrotation Zrotation
											End Site
											{
												OFFSET 0.017936 0.000428 0.001450
											}
										}
									}
								}
								JOINT Middle1.L
								{
									OFFSET 0.119576 0.002851 0.009664
									CHANNELS 3 Xrotation Yrotation Zrotation
									JOINT Middle2.L
									{
										OFFSET 0.030891 0.000737 0.002496
										CHANNELS 3 Xrotation Yrotation Zrotation
										JOINT Middle3.L
										{
											OFFSET 0.021922 0.000523 0.001772
											CHANNELS 3 Xrotation Yrotation Zrotation
											End Site
											{
												OFFSET 0.017936 0.000428 0.001450
											}
										}
									}
								}
								JOINT Ring1.L
								{
									OFFSET 0.101576 0.002851 0.009664
									CHANNELS 3 Xrotation Yrotation Zrotation
									JOINT Ring2.L
									{
										OFFSET 0.028898 0.000689 0.002335
										CHANNELS 3 Xrotation Yrotation Zrotation
										JOINT Ring3.L
										{
											OFFSET 0.019929 0.000475 0.001611
											CHANNELS 3 Xrotation Yrotation Zrotation
											End Site
											{
												OFFSET 0.016940 0.000404 0.001369
											}
										}
									}
								}
								JOINT Pinky1.L
								{
									OFFSET 0.085576 0.002851 0.009664
									CHANNELS 3 Xrotation Yrotation Zrotation
									JOINT Pinky2.L
									{
										OFFSET 0.023915 0.000570 0.001933
										CHANNELS 3 Xrotation Yrotation Zrotation
										JOINT Pinky3.L
										{
											OFFSET 0.016940 0.000404 0.001369
											CHANNELS 3 Xrotation Yrotation Zrotation
											End Site
											{
												OFFSET 0.013951 0.000333 0.001127
											}
										}
									}
								}
							}
						}
					}
				}
				JOINT Clavicle.R
				{
					OFFSET -0.041423 0.014623 0.083095
					CHANNELS 3 Xrotation Yrotation Zrotation
					JOINT UpperArm.R
					{
						OFFSET -0.091831 0.009797 0.057319
						CHANNELS 3 Xrotation Yrotation Zrotation
						JOINT ForeArm.R
						{
							OFFSET -0.280522 0.022633 -0.042740
							CHANNELS 3 Xrotation Yrotation Zrotation
							JOINT Hand.R
							{
								OFFSET -0.260514 0.018872 -0.003366
								CHANNELS 3 Xrotation Yrotation Zrotation
								JOINT Thumb1.R
								{
									OFFSET -0.154676 0.008670 -0.001546
									CHANNELS 3 Xrotation Yrotation Zrotation
									JOINT Thumb2.R
									{
										OFFSET -0.029919 0.002167 -0.000387
										CHANNELS 3 Xrotation Yrotation Zrotation
										End Site
										{
											OFFSET -0.024933 0.001806 -0.000322
										}
									}
								}
								JOINT Index1.R
								{
									OFFSET -0.137676 0.008670 -0.001546
									CHANNELS 3 Xrotation Yrotation Zrotation
									JOINT Index2.R
									{
										OFFSET -0.029919 0.002167 -0.000387
										CHANNELS 3 Xrotation Yrotation Zrotation
										JOINT Index3.R
										{
											OFFSET -0.021941 0.001589 -0.000283
											CHANNELS 3 Xrotation Yrotation Zrotation
											End Site
											{
												OFFSET -0.017951 0.001300 -0.000232
											}
										}
									}
								}
								JOINT Middle1.R
								{
									OFFSET -0.119676 0.008670 -0.001546
									CHANNELS 3 Xrotation Yrotation Zrotation
									JOINT Middle2.R
									{
										OFFSET -0.030916 0.002240 -0.000399
										CHANNELS 3 Xrotation Yrotation Zrotation
										JOINT Middle3.R
										{
											OFFSET -0.021941 0.001589 -0.000283
											CHANNELS 3 Xrotation Yrotation Zrotation
											End Site
											{
												OFFSET -0.017951 0.001300 -0.000232
											}
										}
									}
								}
								JOINT Ring1.R
								{
									OFFSET -0.101676 0.008670 -0.001546
									CHANNELS 3 Xrotation Yrotation Zrotation
									JOINT Ring2.R
									{
										OFFSET -0.028922 0.002095 -0.000374
										CHANNELS 3 Xrotation Yrotation Zrotation
										JOINT Ring3.R
										{
											OFFSET -0.019946 0.001445 -0.000258
											CHANNELS 3 Xrotation Yrotation Zrotation
											End Site
											{
												OFFSET -0.016954 0.001228 -0.000219
											}
										}
									}
								}
								JOINT Pinky1.R
								{
									OFFSET -0.085676 0.008670 -0.001546
									CHANNELS 3 Xrotation Yrotation Zrotation
									JOINT Pinky2.R
									{
										OFFSET -0.023935 0.001734 -0.000309
										CHANNELS 3 Xrotation Yrotation Zrotation
										JOINT Pinky3.R
										{
											OFFSET -0.016954 0.001228 -0.000219
											CHANNELS 3 Xrotation Yrotation Zrotation
											End Site
											{
												OFFSET -0.013962 0.001011 -0.000180
											}
										}
									}
								}
							}
						}
					}
				}
			}
		}
	}
}
MOTION
Frames: 8
Frame Time: 0.04166667
-0.002261 0.472080 1.053729 -10.373155 -0.638359 1.791883 10.552464 6.363335 -1.079427 2.572090 0.296562 -16.170553 -9.965995 -1.265958 12.396247 1.791542 -6.483232 -0.133079 -23.873204 1.146579 5.190404 43.890490 -3.284111 -2.005060 -6.449269 -3.651899 -9.205057 1.645761 -1.484576 -0.364027 10.804554 1.353134 -1.916925 5.989566 -5.495830 -3.886837 -6.378612 4.685355 0.667277 10.859681 2.727390 6.334957 14.227655 2.528094 5.537774 6.042842 18.438360 -2.621537 14.509620 44.916547 -30.522189 12.887707 -1.712890 -22.172317 5.950809 -0.526355 -6.723091 0.000000 0.000000 0.000000 0.000000 0.000000 0.000000 0.000000 0.000000 0.000000 0.000000 0.000000 0.000000 0.000000 0.000000 0.000000 0.000000 0.000000 0.000000 0.000000 0.000000 0.000000 0.000000 0.000000 0.000000 0.000000 0.000000 0.000000 0.000000 0.000000 0.000000 0.000000 0.000000 0.000000 0.000000 0.000000 0.000000 0.000000 0.000000 0.000000 0.000000 0.000000 0.000000 3.680560 -16.788603 -0.067559 28.075266 -51.073501 24.521856 6.606671 0.378636 21.516435 -1.204564 -4.208495 3.494157 0.000000 0.000000 0.000000 0.000000 0.000000 0.000000 0.000000 0.000000 0.000000 0.000000 0.000000 0.000000 0.000000 0.000000 0.000000 0.000000 0.000000 0.000000 0.000000 0.000000 0.000000 0.000000 0.000000 0.000000 0.000000 0.000000 0.000000 0.000000 0.000000 0.000000 0.000000 0.000000 0.000000 0.000000 0.000000 0.000000 0.000000 0.000000 0.000000 0.000000 0.000000 0.000000
-0.001309 0.472853 1.052201 -10.678629 -0.595165 2.498172 12.235027 5.875801 -0.634312 2.280281 0.195591 -17.080188 -11.141644 -1.409592 11.899112 1.883385 -6.095898 -0.189913 -24.659613 0.992638 5.313811 36.488648 -3.092666 -2.696901 -5.417609 -5.147115 -9.028567 1.719469 -1.088037 -0.223992 11.050786 1.386777 -2.369700 6.210186 -5.950156 -4.183034 -7.101762 4.390433 0.535773 10.883894 2.978405 6.085160 13.912244 2.281665 5.928054 6.357154 17.918588 -3.194720 14.402363 44.666988 -32.090275 12.459770 -1.736877 -23.375768 5.681360 -1.034913 -6.946438 0.000000 0.000000 0.000000 0.000000 0.000000 0.000000 0.000000 0.000000 0.000000 0.000000 0.000000 0.000000 0.000000 0.000000 0.000000 0.000000 0.000000 0.000000 0.000000 0.000000 0.000000 0.000000 0.000000 0.000000 0.000000 0.000000 0.000000 0.000000 0.000000 0.000000 0.000000 0.000000 0.000000 0.000000 0.000000 0.000000 0.000000 0.000000 0.000000 0.000000 0.000000 0.000000 4.423297 -16.807679 -0.586329 27.733185 -50.974580 23.756751 5.944588 -0.085105 20.714648 -0.998420 -4.506182 3.244440 0.000000 0.000000 0.000000 0.000000 0.000000 0.000000 0.000000 0.000000 0.000000 0.000000 0.000000 0.000000 0.000000 0.000000 0.000000 0.000000 0.000000 0.000000 0.000000 0.000000 0.000000 0.000000 0.000000 0.000000 0.000000 0.000000 0.000000 0.000000 0.000000 0.000000 0.000000 0.000000 0.000000 0.000000 0.000000 0.000000 0.000000 0.000000 0.000000 0.000000 0.000000 0.000000
0.000346 0.474160 1.049995 -10.950129 -0.609952 3.220829 13.767410 5.334825 -0.159584 2.313434 0.115891 -17.930731 -12.695132 -1.616468 11.139608 1.917855 -5.697561 -0.238598 -24.664930 0.871167 5.123686 28.342395 -2.691264 -3.173415 -4.289984 -6.697381 -8.829939 1.779422 -0.752258 -0.153681 11.068028 1.518538 -2.675975 6.419481 -6.357428 -4.464797 -7.574189 4.104480 0.384336 10.811792 3.119492 5.724514 13.802772 1.981068 6.366898 6.600020 17.557752 -3.680496 14.084484 44.446171 -33.203165 12.142988 -1.802265 -24.346576 5.499925 -1.549476 -7.205947 0.000000 0.000000 0.000000 0.000000 0.000000 0.000000 0.000000 0.000000 0.000000 0.000000 0.000000 0.000000 0.000000 0.000000 0.000000 0.000000 0.000000 0.000000 0.000000 0.000000 0.000000 0.000000 0.000000 0.000000 0.000000 0.000000 0.000000 0.000000 0.000000 0.000000 0.000000 0.000000 0.000000 0.000000 0.000000 0.000000 0.000000 0.000000 0.000000 0.000000 0.000000 0.000000 4.924280 -16.849328 -1.074572 27.379536 -50.871637 23.028504 5.447617 -0.279416 20.165545 -0.699894 -4.901357 3.081814 0.000000 0.000000 0.000000 0.000000 0.000000 0.000000 0.000000 0.000000 0.000000 0.000000 0.000000 0.000000 0.000000 0.000000 0.000000 0.000000 0.000000 0.000000 0.000000 0.000000 0.000000 0.000000 0.000000 0.000000 0.000000 0.000000 0.000000 0.000000 0.000000 0.000000 0.000000 0.000000 0.000000 0.000000 0.000000 0.000000 0.000000 0.000000 0.000000 0.000000 0.000000 0.000000
0.002102 0.475884 1.047296 -11.240230 -0.585088 3.826553 15.328796 4.813337 0.268831 2.597969 -0.131369 -18.818363 -14.613639 -1.871383 10.284405 1.928253 -5.330262 -0.247001 -24.179984 0.689386 4.850563 20.495457 -1.948872 -3.368001 -3.313583 -8.186187 -8.737911 1.835723 -0.439680 -0.122645 10.954488 1.661977 -2.900024 6.590245 -6.693029 -4.671521 -7.830504 3.896549 0.220759 10.662829 3.177923 5.269794 13.686924 1.644991 6.784005 6.761040 17.382764 -3.995535 13.552431 44.207994 -33.799620 11.855173 -1.896604 -25.214450 5.387639 -2.038007 -7.446460 0.000000 0.000000 0.000000 0.000000 0.000000 0.000000 0.000000 0.000000 0.000000 0.000000 0.000000 0.000000 0.000000 0.000000 0.000000 0.000000 0.000000 0.000000 0.000000 0.000000 0.000000 0.000000 0.000000 0.000000 0.000000 0.000000 0.000000 0.000000 0.000000 0.000000 0.000000 0.000000 0.000000 0.000000 0.000000 0.000000 0.000000 0.000000 0.000000 0.000000 0.000000 0.000000 5.267289 -16.972368 -1.415948 27.113299 -50.720527 22.447460 5.061836 -0.355088 19.635946 -0.262831 -5.238966 2.990638 0.000000 0.000000 0.000000 0.000000 0.000000 0.000000 0.000000 0.000000 0.000000 0.000000 0.000000 0.000000 0.000000 0.000000 0.000000 0.000000 0.000000 0.000000 0.000000 0.000000 0.000000 0.000000 0.000000 0.000000 0.000000 0.000000 0.000000 0.000000 0.000000 0.000000 0.000000 0.000000 0.000000 0.000000 0.000000 0.000000 0.000000 0.000000 0.000000 0.000000 0.000000 0.000000
0.005451 0.478110 1.044358 -11.596974 -0.756859 4.433586 16.916869 4.366805 0.631659 3.194870 -0.399456 -19.632223 -16.766802 -2.077466 9.120587 1.982362 -4.958299 -0.219383 -23.062784 0.604430 4.507026 12.345059 -0.788674 -3.163779 -2.526854 -9.672293 -8.707257 1.952538 -0.266684 -0.192621 10.626964 1.806380 -3.113236 6.440834 -6.820380 -4.859215 -7.471143 3.714884 -0.035697 10.369641 3.097336 4.796382 13.660588 1.332053 7.365897 6.491937 17.294594 -4.146789 13.036856 44.083287 -34.040033 11.583540 -2.001939 -25.672256 5.489196 -2.432181 -7.645450 0.000000 0.000000 0.000000 0.000000 0.000000 0.000000 0.000000 0.000000 0.000000 0.000000 0.000000 0.000000 0.000000 0.000000 0.000000 0.000000 0.000000 0.000000 0.000000 0.000000 0.000000 0.000000 0.000000 0.000000 0.000000 0.000000 0.000000 0.000000 0.000000 0.000000 0.000000 0.000000 0.000000 0.000000 0.000000 0.000000 0.000000 0.000000 0.000000 0.000000 0.000000 0.000000 5.158182 -17.118553 -1.804411 27.164028 -50.649390 22.004608 4.622122 -0.445671 19.075416 0.312437 -5.602068 2.996197 0.000000 0.000000 0.000000 0.000000 0.000000 0.000000 0.000000 0.000000 0.000000 0.000000 0.000000 0.000000 0.000000 0.000000 0.000000 0.000000 0.000000 0.000000 0.000000 0.000000 0.000000 0.000000 0.000000 0.000000 0.000000 0.000000 0.000000 0.000000 0.000000 0.000000 0.000000 0.000000 0.000000 0.000000 0.000000 0.000000 0.000000 0.000000 0.000000 0.000000 0.000000 0.000000
0.008185 0.483048 1.040968 -11.750090 -0.766787 4.990469 18.366116 3.899284 1.019168 3.824169 -0.842130 -20.480657 -18.967870 -2.243113 8.177494 1.984595 -4.610634 -0.221367 -22.500567 0.513416 4.171384 7.039223 -0.061711 -3.039784 -2.099232 -10.784478 -8.642336 2.011453 -0.027133 -0.206710 10.360163 1.949069 -3.338666 6.370132 -6.962915 -5.051575 -7.365050 3.558637 -0.254471 10.277300 3.052351 4.465015 13.540651 0.996434 7.800269 6.427132 17.305200 -4.269466 12.518409 43.906032 -34.076200 11.451565 -2.147427 -26.127951 5.559880 -2.812297 -7.726492 0.000000 0.000000 0.000000 0.000000 0.000000 0.000000 0.000000 0.000000 0.000000 0.000000 0.000000 0.000000 0.000000 0.000000 0.000000 0.000000 0.000000 0.000000 0.000000 0.000000 0.000000 0.000000 0.000000 0.000000 0.000000 0.000000 0.000000 0.000000 0.000000 0.000000 0.000000 0.000000 0.000000 0.000000 0.000000 0.000000 0.000000 0.000000 0.000000 0.000000 0.000000 0.000000 5.171451 -17.251520 -2.084426 26.993745 -50.564601 21.507965 4.568701 -0.457162 18.634581 0.759587 -5.839077 3.029126 0.000000 0.000000 0.000000 0.000000 0.000000 0.000000 0.000000 0.000000 0.000000 0.000000 0.000000 0.000000 0.000000 0.000000 0.000000 0.000000 0.000000 0.000000 0.000000 0.000000 0.000000 0.000000 0.000000 0.000000 0.000000 0.000000 0.000000 0.000000 0.000000 0.000000 0.000000 0.000000 0.000000 0.000000 0.000000 0.000000 0.000000 0.000000 0.000000 0.000000 0.000000 0.000000
0.010395 0.492288 1.036965 -11.487168 -0.640735 5.588382 19.737441 3.295625 1.515334 4.281392 -1.167877 -21.210494 -20.971069 -2.367500 7.338171 1.896621 -4.416507 -0.271088 -22.316006 0.350682 3.884192 4.073529 0.333653 -2.839632 -2.147144 -11.238628 -8.682585 1.993556 0.107529 -0.164018 10.040573 1.990644 -3.590509 6.263246 -7.116594 -5.214545 -7.234853 3.511723 -0.477344 10.052682 2.848755 4.311593 13.350569 0.800387 8.114750 6.358458 17.385510 -4.368756 12.048324 43.728800 -33.838085 11.437955 -2.356558 -26.505124 5.826120 -2.955947 -7.664102 0.000000 0.000000 0.000000 0.000000 0.000000 0.000000 0.000000 0.000000 0.000000 0.000000 0.000000 0.000000 0.000000 0.000000 0.000000 0.000000 0.000000 0.000000 0.000000 0.000000 0.000000 0.000000 0.000000 0.000000 0.000000 0.000000 0.000000 0.000000 0.000000 0.000000 0.000000 0.000000 0.000000 0.000000 0.000000 0.000000 0.000000 0.000000 0.000000 0.000000 0.000000 0.000000 5.146486 -17.553441 -2.322599 26.790120 -50.329486 20.980972 4.462414 -0.495902 18.153494 1.085392 -6.004992 2.984214 0.000000 0.000000 0.000000 0.000000 0.000000 0.000000 0.000000 0.000000 0.000000 0.000000 0.000000 0.000000 0.000000 0.000000 0.000000 0.000000 0.000000 0.000000 0.000000 0.000000 0.000000 0.000000 0.000000 0.000000 0.000000 0.000000 0.000000 0.000000 0.000000 0.000000 0.000000 0.000000 0.000000 0.000000 0.000000 0.000000 0.000000 0.000000 0.000000 0.000000 0.000000 0.000000
0.013010 0.505196 1.032837 -10.961310 -0.541550 6.275012 20.674948 2.544274 1.791089 5.621198 -1.466897 -21.910450 -22.786437 -2.285768 6.584248 1.765023 -4.501123 -0.298649 -22.742657 0.067235 4.040913 4.600329 0.194454 -2.494779 -1.986756 -11.039451 -8.748793 1.930907 0.243998 -0.073541 9.619544 1.771393 -3.863269 6.250672 -7.245906 -5.314465 -7.150068 3.536959 -0.682191 9.934198 2.678130 4.176575 13.396460 0.841150 8.255064 6.508086 17.696790 -4.378353 11.747248 43.581257 -33.576533 11.522600 -2.621640 -26.838084 6.045631 -3.003789 -7.740098 0.000000 0.000000 0.000000 0.000000 0.000000 0.000000 0.000000 0.000000 0.000000 0.000000 0.000000 0.000000 0.000000 0.000000 0.000000 0.000000 0.000000 0.000000 0.000000 0.000000 0.000000 0.000000 0.000000 0.000000 0.000000 0.000000 0.000000 0.000000 0.000000 0.000000 0.000000 0.000000 0.000000 0.000000 0.000000 0.000000 0.000000 0.000000 0.000000 0.000000 0.000000 0.000000 5.219548 -17.988897 -2.471534 26.514381 -50.064923 20.450274 4.477657 -0.526062 17.688297 1.175814 -6.191302 2.948697 0.000000 0.000000 0.000000 0.000000 0.000000 0.000000 0.000000 0.000000 0.000000 0.000000 0.000000 0.000000 0.000000 0.000000 0.000000 0.000000 0.000000 0.000000 0.000000 0.000000 0.000000 0.000000 0.000000 0.000000 0.000000 0.000000 0.000000 0.000000 0.000000 0.000000 0.000000 0.000000 0.000000 0.000000 0.000000 0.000000 0.000000 0.000000 0.000000 0.000000 0.000000 0.000000
